With: Carice van Houten, Rutger Hauer and Liam Cunningham

Dichteres Ingrid Jonker is al van kleins af aan op zoek naar een liefde en een thuis. Haar vader, die deel uitmaakt van de Apartheidsregering als minister van censuur, heeft haar afgewezen. Veel mannen voelen zich echter aangetrokken tot de prachtige en gepassioneerde Ingrid. Op een bepaald moment heeft Ingrid een relatie met twee mannen tegelijk: de beroemde en bekende Zuid-Afrikaanse schrijvers Jack Cope en André Brink. Ingrid hoopt dat ze op deze manier de rust kan vinden waar ze al jaren naar op zoek is.

She searched for a home, she searched for love. Confronted by Apartheid and a father who was Minister of censorship... 

------------------------ Dutch Friends ------------------------
---------------------------------------------------------------
- Bezoek ook eens mijn vrienden op:  http://www.Film-Test.nl --
----- voor mijn Nederlandse Sync. ondertitels ---- en meer ----
------- http://www.Film-Test.nl ---- voor Films en meer -------
---------------------------------------------------------------

General:

Complete name                    : Black Butterflies\Black Butterflies.avi
Format                           : AVI
Format/Info                      : Audio Video Interleave
File size                        : 1.21 GiB
Duration                         : 1h 35mn
Overall bit rate                 : 1 819 Kbps

Video:

Format                           : MPEG-4 Visual
Format profile                   : Simple@L3
Format settings, BVOP            : No
Format settings, QPel            : No
Format settings, GMC             : No warppoints
Format settings, Matrix          : Default (H.263)
Codec ID                         : XVID
Codec ID/Hint                    : XviD
Duration                         : 1h 35mn
Bit rate                         : 1 360 Kbps
Width                            : 720 pixels
Height                           : 304 pixels
Display aspect ratio             : 2.35:1
Frame rate                       : 25.000 fps
Color space                      : YUV
Chroma subsampling               : 4:2:0
Bit depth                        : 8 bits
Scan type                        : Progressive
Compression mode                 : Lossy
Bits/(Pixel*Frame)               : 0.249
Stream size                      : 928 MiB (75%)
Writing library                  : XviD 1.1.2 (UTC 2006-11-01)

Audio:

Format                           : AC-3
Format/Info                      : Audio Coding 3
Mode extension                   : CM (complete main)
Codec ID                         : 2000
Duration                         : 1h 35mn
Bit rate mode                    : Constant
Bit rate                         : 448 Kbps
Channel(s)                       : 6 channels
Channel positions                : Front: L C R, Side: L R, LFE
Sampling rate                    : 48.0 KHz
Bit depth                        : 16 bits
Compression mode                 : Lossy
Stream size                      : 306 MiB (25%)
Alignment                        : Aligned on interleaves
Interleave, duration             : 32 ms (0.80 video frame)
Interleave, preload duration     : 64 ms

